<svg width="194" height="40" viewBox="0 0 194 40" fill="none" xmlns="http://www.w3.org/2000/svg" role="img" aria-labelledby="logoTitle">
<title id="logoTitle">Company Logo</title>
<style>
path {
  fill: url(#logoGradient);
}
</style>
<g clip-path="url(#clip0_1_60)" filter="url(#logoSoftDepth)">
<path d="M50.3308 9.84688C52.8956 9.84688 54.9748 7.76458 54.9748 5.19593C54.9748 2.62729 52.8956 0.544991 50.3308 0.544991C47.7661 0.544991 45.6869 2.62729 45.6869 5.19593C45.6869 7.76458 47.7661 9.84688 50.3308 9.84688Z" fill="white"/>
<path d="M32.37 37.4867C33.6766 40.8481 36.8057 39.6249 36.8057 39.6249C40.0768 38.3828 38.7229 34.8128 36.8625 30.1334C35.253 26.0893 33.3026 21.116 32.1381 17.9679C31.4516 16.2375 27.9485 6.99721 26.5899 3.46041C25.0656 -0.503083 20.9708 0.0231702 20.9708 0.0231702C17.1884 0.0231702 14.954 5.27148 14.1161 6.89765C12.9894 9.09274 7.43182 20.1535 4.85658 25.3924C3.42694 28.0948 2.25767 30.4273 1.131 32.6319C-2.10225 38.9517 2.42809 40.2128 4.30271 39.7197C6.0874 39.2504 6.89216 37.7759 8.76678 35.2015C18.1399 22.3155 30.6469 19.2812 30.6469 19.2812C37.1986 16.9534 43.916 17.8067 46.0699 21.0638C50.8748 28.3365 40.323 37.2592 46.4108 39.6297C48.1339 40.2981 50.9174 38.4539 52.7068 34.4667C54.4584 30.5696 56.2715 23.5813 52.1151 18.1054C47.6936 12.2882 37.2459 11.2452 24.4597 16.3797L26.1071 20.9595M12.9042 23.5766L21.3022 7.16315L24.4549 16.3844C16.6345 19.9734 12.8995 23.5813 12.8995 23.5813L12.9042 23.5766Z" fill="white"/>
<path d="M116.023 3.6596C116.023 1.67747 114.419 0.0706444 112.44 0.0706444C110.46 0.0706444 108.856 1.67747 108.856 3.6596V36.2541C108.856 38.2362 110.46 39.8431 112.44 39.8431C114.419 39.8431 116.023 38.2362 116.023 36.2541V3.6596Z" fill="white"/>
<path d="M193.664 34.6943L178.506 2.14242C178.355 1.81529 178.151 1.51187 177.905 1.23689C177.891 1.21792 177.872 1.2037 177.858 1.18948C177.791 1.11836 177.725 1.05199 177.654 0.990353C177.616 0.952425 177.574 0.923979 177.531 0.890792C177.484 0.848122 177.436 0.805453 177.384 0.767525C177.29 0.69641 177.19 0.630035 177.086 0.568402C177.086 0.568402 177.076 0.568402 177.076 0.563661C176.977 0.502028 176.873 0.449877 176.769 0.402466C176.769 0.402466 176.764 0.402466 176.759 0.402466C176.736 0.392984 176.712 0.383502 176.693 0.37402C176.608 0.336092 176.523 0.302905 176.437 0.269718C176.395 0.255495 176.357 0.246013 176.314 0.23179C176.243 0.208084 176.172 0.184379 176.097 0.170156C176.049 0.160674 176.002 0.151192 175.959 0.14171C175.888 0.127487 175.822 0.113264 175.751 0.103782C175.708 0.0990409 175.661 0.0942999 175.618 0.0895589C175.543 0.0800768 175.472 0.0753358 175.396 0.0705948C175.358 0.0705948 175.325 0.0705948 175.287 0.0705948C175.202 0.0705948 175.121 0.0705948 175.036 0.0705948C175.008 0.0705948 174.984 0.0753358 174.956 0.0753358C174.866 0.0800768 174.776 0.0895589 174.681 0.103782C174.662 0.103782 174.643 0.113264 174.624 0.113264C174.53 0.127487 174.43 0.151192 174.336 0.174897C174.321 0.174897 174.312 0.184379 174.298 0.184379C174.198 0.212825 174.099 0.241272 173.999 0.274459C173.99 0.274459 173.985 0.2792 173.976 0.283941C173.886 0.317128 173.791 0.355056 173.701 0.392984C172.892 0.772266 172.291 1.4123 171.945 2.16613L156.796 34.699C155.954 36.5101 156.735 38.6625 158.543 39.5064C160.352 40.3503 162.501 39.568 163.343 37.757L175.226 12.2313L187.108 37.7522C187.95 39.5633 190.099 40.3456 191.908 39.5017C193.716 38.6578 194.497 36.5053 193.655 34.6943H193.664Z" fill="white"/>
<path d="M103.89 35.1584L93.471 2.57806C93.1349 1.52555 92.3585 0.748026 91.4117 0.359262C91.3691 0.345039 91.3312 0.326075 91.2886 0.311852C91.2129 0.283406 91.1371 0.254959 91.0567 0.231254C91.0425 0.231254 91.033 0.221772 91.0188 0.217031H91.0141C90.8957 0.183844 90.7774 0.155398 90.659 0.131693C90.6543 0.131693 90.6448 0.131693 90.6401 0.131693C90.5359 0.112729 90.4318 0.103247 90.3276 0.0937646C90.2803 0.0937646 90.233 0.0937646 90.1856 0.0890236C90.1194 0.0890236 90.0531 0.0842826 89.9915 0.0890236C89.9253 0.0890236 89.859 0.0937646 89.788 0.0985056C89.7406 0.0985056 89.6933 0.103247 89.646 0.107988C89.5702 0.11747 89.4945 0.131693 89.4187 0.145916C89.3761 0.155398 89.3335 0.160139 89.2957 0.169621C89.2247 0.183844 89.1489 0.207549 89.0779 0.226513C89.04 0.235995 89.0022 0.245477 88.9643 0.254959C88.9548 0.254959 88.9501 0.2597 88.9406 0.264441C88.8933 0.278664 88.8459 0.30237 88.7986 0.316593C88.2873 0.506234 87.8471 0.800177 87.4873 1.16998C87.0707 1.59193 86.7488 2.12292 86.5689 2.73926C86.5689 2.74874 86.5689 2.75348 86.5642 2.76296L81.1628 21.746L75.8656 3.12802C75.6762 1.81001 74.7673 0.648464 73.4134 0.217031C71.5293 -0.38982 69.5127 0.653205 68.9067 2.54013L58.4874 35.1204C57.8815 37.0074 58.9229 39.027 60.807 39.6339C62.6911 40.2407 64.7078 39.1977 65.3137 37.3108L72.1021 16.0852L77.7023 35.7605C77.7497 35.9217 77.8065 36.0734 77.8728 36.2204C77.8964 36.2725 77.9201 36.3294 77.9438 36.3815C77.958 36.41 77.9722 36.4432 77.9864 36.4716C78.4172 37.3345 79.184 38.0172 80.1734 38.3017C80.4575 38.3823 80.7462 38.4249 81.0255 38.4344C81.0729 38.4344 81.1155 38.4344 81.1628 38.4344C81.2102 38.4344 81.2528 38.4344 81.3001 38.4344C81.5841 38.4249 81.8682 38.387 82.1522 38.3017C83.1416 38.0172 83.9085 37.3345 84.3393 36.4716C84.3535 36.4432 84.3677 36.4147 84.3819 36.3815C84.4055 36.3294 84.4292 36.2772 84.4529 36.2204C84.5191 36.0734 84.576 35.9217 84.6233 35.7605L90.2424 16.0189L97.064 37.3487C97.6699 39.2356 99.6866 40.2739 101.571 39.6718C103.455 39.065 104.491 37.0453 103.89 35.1584Z" fill="white"/>
<path d="M151.674 34.6138L146.708 24.615C148.327 23.2021 152.1 19.4852 152.091 12.9094C152.081 7.94553 149.099 4.66948 147.063 3.05279C141.345 -1.49385 131.645 -0.327556 126.736 4.19538L123.952 2.66877V10.3824C123.952 11.2548 124.899 11.7905 125.647 11.3401L132.184 7.40505L130.281 6.26721C130.281 6.26721 132.468 4.19064 136.966 4.34235C139.626 4.43243 145.274 5.57976 145.032 12.8999C144.975 14.6209 144.743 16.4794 143.579 18.0486C142.414 19.6179 140.497 21.3484 137.065 21.9742C130.016 23.2543 123.957 18.9494 123.957 18.9494V36.4059C123.957 38.3876 125.562 39.9948 127.541 39.9948C129.519 39.9948 131.124 38.3876 131.124 36.4059V26.5256L139.707 26.2838C139.763 26.6109 145.335 37.9372 145.335 37.9372C146.235 39.7436 148.445 40.4595 150.24 39.5018C151.967 38.5725 152.559 36.368 151.688 34.6043L151.674 34.6138Z" fill="white"/>
<path d="M142.353 19.49C142.353 19.49 153.104 13.0517 147.447 3.36106C147.447 3.36106 144.417 0.322067 138.163 0.0850163C131.11 -0.180481 126.106 3.85887 126.106 3.85887L123.947 2.67361V10.0886C123.947 11.0889 125.036 11.7053 125.893 11.1932L132.175 7.40989L130.272 6.27205C130.272 6.27205 133.382 3.90154 138.4 5.08679C145.794 6.83149 146.424 15.5028 142.353 19.49Z" fill="white"/>
</g>
<defs>
<linearGradient id="logoGradient" x1="0" y1="4" x2="194" y2="36" gradientUnits="userSpaceOnUse">
<stop offset="0" stop-color="#15124B"/>
<stop offset="0.38" stop-color="#5B2BC8"/>
<stop offset="0.68" stop-color="#8E55F6"/>
<stop offset="1" stop-color="#C8B7FF"/>
</linearGradient>
<filter id="logoSoftDepth" x="-2" y="-2" width="198" height="44" filterUnits="userSpaceOnUse" color-interpolation-filters="sRGB">
<feDropShadow dx="0" dy="1" stdDeviation="0.7" flood-color="#17104D" flood-opacity="0.14"/>
</filter>
<clipPath id="clip0_1_60">
<rect width="194" height="40" fill="white"/>
</clipPath>
</defs>
</svg>
